<?xml version="1.0" encoding="UTF-8"?>
<svg version="1.1" xmlns="http://www.w3.org/2000/svg" width="1410" height="1367" viewBox="0 0 1410 1367">
<path d="M0 0 C29.31656862 -0.06811664 58.63312489 -0.12168818 87.94975669 -0.15319599 C91.42736071 -0.15694717 94.90496458 -0.16083023 98.38256836 -0.16479492 C99.42086364 -0.16597532 99.42086364 -0.16597532 100.48013458 -0.16717956 C111.62179298 -0.18015902 122.76340394 -0.20377067 133.90503439 -0.23145839 C145.37592993 -0.25972214 156.84679245 -0.27599614 168.31772214 -0.28226548 C174.74452269 -0.28614467 181.17121642 -0.2951306 187.59798241 -0.31719017 C240.02149959 -0.49015576 240.02149959 -0.49015576 263 3 C264.20994629 3.18302485 264.20994629 3.18302485 265.44433594 3.36974716 C269.60029037 4.01570067 273.70509842 4.78331523 277.8125 5.6875 C278.99714844 5.94241211 280.18179687 6.19732422 281.40234375 6.45996094 C312.92709819 13.52265351 340.95177643 26.37341573 365 48 C365.99580078 48.88751953 365.99580078 48.88751953 367.01171875 49.79296875 C393.37616952 74.68248521 404.88736058 113.08261151 406.11669922 148.34765625 C407.26771844 191.18160533 399.80355505 235.53704634 371 269 C369.90945313 270.29744141 369.90945313 270.29744141 368.796875 271.62109375 C338.48072485 306.57190714 293.44068549 323.04002526 248.18847656 326.8190918 C241.0275097 327.22539168 233.85832416 327.24483383 226.6875 327.25 C225.84407043 327.25067474 225.00064087 327.25134949 224.13165283 327.25204468 C201.86346287 327.22380096 180.23031993 324.63946734 159.20776367 316.91381836 C158.22901779 316.55501083 157.25027191 316.19620331 156.24186707 315.82652283 C155.50205093 315.55377029 154.7622348 315.28101776 154 315 C154.08408462 338.8447276 154.17928525 362.68938875 154.28752708 386.53401947 C154.33753568 397.6068129 154.38397945 408.67959935 154.421875 419.75244141 C154.45493439 429.40949609 154.49484145 439.06649474 154.54279006 448.72348738 C154.56791712 453.83134662 154.58973823 458.93916936 154.60334396 464.04707336 C154.61629064 468.86678434 154.63847721 473.68636922 154.66738319 478.50601006 C154.67636148 480.26341312 154.68212601 482.02083643 154.68421364 483.77826118 C154.11838054 509.95069896 154.11838054 509.95069896 165.2578125 532.51171875 C179.57331349 544.74087991 201.0705713 545.05918042 218.875 546.125 C220.25654237 546.21173214 221.63805311 546.29896961 223.01953125 546.38671875 C226.3460473 546.5960799 229.67298327 546.79875188 233 547 C233 552.94 233 558.88 233 565 C156.11 565 79.22 565 0 565 C0 559.06 0 553.12 0 547 C3.6196875 546.74476563 3.6196875 546.74476563 7.3125 546.484375 C9.70925274 546.30557931 12.10559565 546.12199766 14.50195312 545.93798828 C16.13830486 545.8148461 17.77502634 545.69650122 19.41210938 545.58349609 C44.15280168 543.8957307 44.15280168 543.8957307 64.8125 531.4375 C71.67549842 523.04585228 73.15764986 511.71297067 73.13142776 501.20773983 C73.13450672 500.05341488 73.13450672 500.05341488 73.13764787 498.87577024 C73.14330781 496.2939493 73.14186186 493.71218188 73.14044189 491.13035583 C73.14302611 489.26178252 73.14603943 487.39320976 73.1494453 485.52463776 C73.15751199 480.38697456 73.15930469 475.24932533 73.16004276 470.11165655 C73.1618939 464.57158049 73.16944157 459.03151168 73.17617798 453.49143982 C73.18975972 441.37560715 73.19578584 429.25977779 73.20018864 417.14393878 C73.20295146 409.57806055 73.2071889 402.0121836 73.21169281 394.44630623 C73.22388552 373.49687889 73.23422003 352.54745224 73.2375679 331.59802151 C73.23778953 330.24366345 73.23801132 328.8893054 73.23823325 327.53494734 C73.23845389 326.1773546 73.23867437 324.81976185 73.2388947 323.46216911 C73.23933725 320.73869542 73.23978436 318.01522173 73.24023438 315.29174805 C73.24034377 314.61648665 73.24045316 313.94122525 73.24056586 313.24550139 C73.24419543 291.35663006 73.26011206 269.46779187 73.28342474 247.57893323 C73.30803856 224.42598462 73.32173476 201.2730542 73.32293582 178.12009007 C73.32385226 165.50339098 73.32959687 152.88673527 73.34775543 140.27004814 C73.36316461 129.52580065 73.36827204 118.78160995 73.36001733 108.03735351 C73.35611369 102.55731242 73.35702656 97.07738568 73.37107468 91.5973587 C73.38383051 86.57542009 73.38260121 81.55368158 73.37048396 76.53174318 C73.36852989 74.7201266 73.37159194 72.90849577 73.38032833 71.0968992 C73.44407481 56.97836862 72.88277846 43.7152971 64 32 C48.48192948 16.48192948 20.10652956 18.60399061 0 18 C0 12.06 0 6.12 0 0 Z M158 43 C155.28765317 47.64973742 153.87401971 51.70803213 153.87695217 57.06856918 C153.87496112 57.87423096 153.87297007 58.67989275 153.87091869 59.50996852 C153.87383153 60.38934431 153.87674437 61.26872011 153.87974548 62.17474365 C153.87889106 63.11329484 153.87803663 64.05184603 153.87715632 65.01883817 C153.87550613 68.1711067 153.88101539 71.32332229 153.88647461 74.47558594 C153.88675661 76.73230488 153.8865985 78.98902391 153.8860321 81.2457428 C153.88574462 87.37961584 153.8916335 93.51346941 153.89860606 99.64733791 C153.90484769 106.05486897 153.90544404 112.46240045 153.90663147 118.86993408 C153.90938871 129.6269979 153.91563941 140.38405319 153.92456055 151.14111328 C153.93373974 162.22086552 153.9408181 173.30061582 153.94506836 184.38037109 C153.94533108 185.06334219 153.94559381 185.74631328 153.94586449 186.44998047 C153.94716953 189.87625023 153.94843324 193.30252002 153.94967639 196.72878981 C153.96004288 225.15253146 153.97773021 253.57626535 154 282 C155.41725023 282.63989492 156.83559849 283.27735821 158.25439453 283.91381836 C159.43897751 284.44669716 159.43897751 284.44669716 160.64749146 284.99034119 C189.97260558 297.5762083 228.331699 298.73319838 258 287.1875 C269.26659809 282.31018481 278.8086343 276.12294262 288 268 C288.62390625 267.45988281 289.2478125 266.91976562 289.890625 266.36328125 C314.2300705 243.78673951 324.07012521 206.97966601 326 175 C327.2721694 135.29973837 322.94711383 93.63433631 295 63 C294.30390625 62.22269531 293.6078125 61.44539063 292.890625 60.64453125 C274.18391132 40.81131839 246.45016828 30.46950505 219.53125 29.6640625 C216.8526839 29.63409832 214.17830405 29.61750075 211.5 29.625 C210.80056274 29.62521149 210.10112549 29.62542297 209.38049316 29.62564087 C192.07289646 29.67768897 171.59518668 30.95656376 158 43 Z " fill="#202020" transform="translate(295,401)"/>
<path d="M0 0 C55.44 0 110.88 0 168 0 C168 1.98 168 3.96 168 6 C163.72150459 7.36133945 159.64051801 8.20918788 155.1875 8.8125 C143.7103463 10.68953762 135.90045377 16.2179374 129.1484375 25.5625 C122.70891927 35.52652821 117.69630649 46.34253189 112.48730469 56.98095703 C110.42355992 61.17010144 108.31481835 65.33631175 106.20361328 69.50170898 C103.16361359 75.81171239 102.77943807 82.92144538 104.79345703 89.65136719 C105.9426405 92.29505781 107.21203174 94.82826274 108.5625 97.375 C109.04630127 98.33253174 109.53010254 99.29006348 110.02856445 100.27661133 C111.09166639 102.3783167 112.16428445 104.47522879 113.24511719 106.56787109 C115.13826063 110.27040456 116.96848512 113.99975592 118.7890625 117.73828125 C119.76670313 119.73481908 120.7457406 121.73066358 121.72555542 123.72613525 C122.35620171 125.01199665 122.98511009 126.29871218 123.61209106 127.58636475 C130.49229871 141.67340658 138.08675469 157.07702716 153.453125 163.26171875 C157.69224439 164.49054323 162.0016921 165.06386696 166.375 165.60546875 C169 166 169 166 170 167 C170 168.98 170 170.96 170 173 C114.56 173 59.12 173 2 173 C2 170.69 2 168.38 2 166 C2.97839844 165.90203125 3.95679688 165.8040625 4.96484375 165.703125 C12.56412602 164.83634354 19.25822727 163.81367229 26 160 C27.5159375 159.2265625 27.5159375 159.2265625 29.0625 158.4375 C43.41236435 146.53016576 50.76075436 124.70926252 58.6875 108.375 C59.20473633 107.31458496 59.72197266 106.25416992 60.25488281 105.16162109 C60.9698291 103.67009521 60.9698291 103.67009521 61.69921875 102.1484375 C62.12033936 101.27364746 62.54145996 100.39885742 62.9753418 99.49755859 C66.43471404 91.06549331 65.11483686 83.26870086 62 75 C59.50777079 69.48891151 56.63162648 64.1609136 53.8125 58.8125 C53.07409451 57.39558605 52.33645988 55.9782701 51.59960938 54.56054688 C49.77649572 51.0591024 47.93886111 47.56555761 46.09457397 44.07522583 C44.99300811 41.98674392 43.89819594 39.8948176 42.80395508 37.80249023 C42.10134074 36.46714489 41.39847055 35.13193412 40.6953125 33.796875 C40.38080643 33.1929744 40.06630035 32.58907379 39.74226379 31.96687317 C34.50590817 22.07419893 27.80546463 13.98727659 17.15234375 9.91015625 C13.82969531 8.950829 10.61269478 8.40332649 7.1875 7.9375 C1.10602094 7.10602094 1.10602094 7.10602094 0 6 C0 4.02 0 2.04 0 0 Z M73 12 C70.83378502 15.5472238 70.78662494 18.25562912 71.3671875 22.38623047 C72.63054871 27.60441916 75.10236107 32.28549404 77.5 37.0625 C78.03955322 38.155625 78.57910645 39.24875 79.13500977 40.375 C80.73665237 43.59392486 82.36297612 46.79894707 84 50 C84.45101074 50.89058105 84.90202148 51.78116211 85.36669922 52.69873047 C86.53283253 54.97970357 87.72574487 57.24300051 88.9375 59.5 C89.44796875 60.48625366 89.44796875 60.48625366 89.96875 61.49243164 C91.49073112 64.22565607 92.61297784 65.80679854 95.44140625 67.21875 C99.29882755 66.8889552 100.47636447 64.85402926 103 62 C104.40486688 59.68971314 105.67042114 57.45055578 106.8828125 55.046875 C107.22375946 54.38721741 107.56470642 53.72755981 107.91598511 53.0479126 C108.63137115 51.65848733 109.34209048 50.26665027 110.04833984 48.87255859 C111.11785225 46.76409129 112.20409826 44.6649298 113.29296875 42.56640625 C120.4749598 29.90782752 120.4749598 29.90782752 122 16 C119.3973989 11.259548 116.97731726 9.65080593 111.8125 8.125 C100.33032654 5.72340679 82.73319711 4.33142046 73 12 Z M70 102 C66.63659179 105.44959756 64.60614449 109.41348244 62.46875 113.69921875 C62.15095581 114.33430862 61.83316162 114.9693985 61.5057373 115.62373352 C60.837365 116.96280713 60.17192409 118.30334752 59.50927734 119.64526367 C58.50977112 121.66772849 57.49983717 123.68471177 56.48828125 125.70117188 C49.02846478 139.70039706 49.02846478 139.70039706 46 155 C47.18439823 158.48739478 48.26110244 160.37305662 51.0625 162.75 C58.55582837 165.93865037 66.01477655 166.19452906 74.0625 166.25 C74.90111572 166.25926514 75.73973145 166.26853027 76.60375977 166.27807617 C83.42424449 166.24402383 90.76551312 165.89582103 96.5625 161.9375 C99.19253314 158.76797288 99.95110594 156.89789731 99.6171875 152.77734375 C96.95263533 140.78685898 89.81821447 129.55219487 84.25 118.6875 C83.91644501 118.03422729 83.58289001 117.38095459 83.23922729 116.70788574 C82.27555074 114.82644872 81.30337718 112.94967692 80.328125 111.07421875 C79.7599707 109.97682373 79.19181641 108.87942871 78.60644531 107.7487793 C76.71860091 104.48943908 76.71860091 104.48943908 74 102 C72.68 102 71.36 102 70 102 Z " fill="#202020" transform="translate(857,489)"/>
<path d="M0 0 C3.14441698 1.36063027 4.92096943 2.77868458 7.03125 5.46484375 C7.58828613 6.1722168 8.14532227 6.87958984 8.71923828 7.60839844 C9.30688965 8.37700195 9.89454102 9.14560547 10.5 9.9375 C11.1172998 10.7409082 11.73459961 11.54431641 12.37060547 12.37207031 C18.82589257 20.90292188 24.57318027 29.78660963 30 39 C30.50273438 39.85045898 31.00546875 40.70091797 31.5234375 41.57714844 C67.36537563 102.91325702 75.65478393 176.45439966 57.875 244.875 C54.31092863 258.0157978 49.42856906 270.52860584 44 283 C43.6479248 283.8132373 43.29584961 284.62647461 42.93310547 285.46435547 C35.29068332 302.91088145 25.29709196 318.70737374 14 334 C13.49194824 334.69448242 12.98389648 335.38896484 12.46044922 336.10449219 C10.98981574 338.10327449 9.49973675 340.08549334 8 342.0625 C7.555354 342.66473389 7.11070801 343.26696777 6.65258789 343.88745117 C5.375 345.53515625 5.375 345.53515625 3 348 C-1.91730642 348 -3.43120905 346.22297284 -6.75 343 C-7.25660156 342.52304687 -7.76320313 342.04609375 -8.28515625 341.5546875 C-9.53180766 340.37860126 -10.76704609 339.19043826 -12 338 C-10.26542495 334.03105708 -7.65346652 330.74649474 -5.0625 327.3125 C22.22282065 290.41929196 38.78716686 249.43713787 45 204 C45.1045752 203.25266602 45.20915039 202.50533203 45.31689453 201.73535156 C46.3676214 192.99495811 46.24385223 184.16516139 46.25 175.375 C46.25067474 174.50795441 46.25134949 173.64090881 46.25204468 172.74758911 C46.22502988 150.8426279 43.45260984 130.2194955 38 109 C37.72615479 107.90196045 37.72615479 107.90196045 37.44677734 106.78173828 C28.71637348 72.2712499 10.17287078 40.53727501 -12 13 C-10.44997253 9.11602311 -7.99523379 6.97020381 -4.875 4.25 C-3.96492188 3.45078125 -3.05484375 2.6515625 -2.1171875 1.828125 C-1.06917969 0.92320312 -1.06917969 0.92320312 0 0 Z " fill="#202020" transform="translate(1049,401)"/>
<path d="M0 0 C3.1268791 1.38132461 5.19920392 2.97903763 7.5625 5.4375 C8.14128906 6.03433594 8.72007812 6.63117188 9.31640625 7.24609375 C10.14978516 8.11427734 10.14978516 8.11427734 11 9 C11.99863212 10.00136601 12.99842341 11.00157908 14 12 C13.24976563 12.98097656 12.49953125 13.96195312 11.7265625 14.97265625 C-31.06832906 71.23949229 -51.48460711 137.29878345 -43 208 C-36.77019157 253.57883596 -18.13666622 296.59256346 10.78588867 332.31860352 C12.09379423 334.1298936 13.05319359 335.97987068 14 338 C12.07063642 339.842617 10.13244033 341.67395452 8.1875 343.5 C7.36668945 344.28697266 7.36668945 344.28697266 6.52929688 345.08984375 C2.33984375 349 2.33984375 349 -1 349 C-2.39111328 347.64575195 -2.39111328 347.64575195 -3.8203125 345.73828125 C-4.35108398 345.03815918 -4.88185547 344.33803711 -5.42871094 343.61669922 C-6.26837402 342.47612061 -6.26837402 342.47612061 -7.125 341.3125 C-7.70540039 340.53664551 -8.28580078 339.76079102 -8.88378906 338.96142578 C-10.60308827 336.6507904 -12.30533877 334.32874954 -14 332 C-14.66370605 331.08951904 -14.66370605 331.08951904 -15.34082031 330.16064453 C-21.41921296 321.75641216 -26.84998617 312.99393209 -32 304 C-32.34417969 303.39961914 -32.68835938 302.79923828 -33.04296875 302.18066406 C-67.01362022 242.27647886 -73.65271798 169.01958203 -56 103 C-45.90859477 67.20914947 -27.74105923 26.00724303 0 0 Z " fill="#202020" transform="translate(828,401)"/>
</svg>
