<svg width="2448" height="580" viewBox="0 0 2448 580" fill="none" xmlns="http://www.w3.org/2000/svg">
<path d="M2084.17 179.652C2084.17 113.568 2107.71 50.9098 2151.38 0.015625L2164.29 11.7977C2125.56 58.89 2103.16 115.487 2103.16 179.669C2103.16 243.852 2125.56 300.449 2164.29 347.541L2151.38 359.323C2107.7 308.429 2084.17 245.771 2084.17 179.687V179.652Z" fill="#FCFBFA"/>
<path d="M2447.18 179.654C2447.18 245.737 2423.64 308.396 2379.97 359.29L2367.06 347.526C2405.79 300.433 2428.21 243.836 2428.21 179.654C2428.21 115.471 2405.79 58.8744 2367.06 11.7821L2379.97 0C2423.64 50.8942 2447.18 113.552 2447.18 179.636V179.654Z" fill="#FCFBFA"/>
<path d="M791.005 0H697.035V93.9695H791.005V0Z" fill="#FCFBFA"/>
<path d="M2090.87 468.431C2088.06 468.431 2086.64 469.847 2085.94 475.478C2072.55 528.381 2053.48 542.494 2042.2 542.494C2029.51 542.494 2018.93 534.03 2018.93 503.687C2018.93 434.555 2022.46 364.706 2022.46 295.573C2022.46 216.56 1976.6 180.586 1908.17 180.586C1839.74 180.586 1784.72 225.025 1784.72 281.46C1784.72 307.553 1799.53 329.431 1824.93 329.431C1847.5 329.431 1860.2 315.318 1860.2 295.573C1860.2 272.996 1849.62 260.299 1849.62 239.138C1849.62 210.911 1865.15 196.098 1894.06 196.098C1927.22 196.098 1951.19 217.959 1951.19 294.856V306.136C1951.19 324.482 1939.2 342.11 1922.27 349.875C1845.37 383.733 1768.47 425.355 1768.47 495.904C1768.47 511.076 1771.43 524.866 1776.94 536.666C1780.47 544.216 1771.34 551.21 1765.07 545.722C1753.12 535.249 1746.27 517.352 1746.27 487.44V283.558C1746.27 217.242 1720.16 181.268 1668.68 181.268C1645.4 181.268 1617.17 196.081 1584.73 231.355C1572.73 244.751 1559.34 243.352 1552.27 226.423C1536.76 197.497 1517 181.268 1488.07 181.268C1463.38 181.268 1433.75 198.197 1403.41 232.054C1391.41 245.45 1384.36 242.635 1386.48 225.007C1387.18 214.426 1388.6 203.846 1388.6 193.964C1388.6 186.917 1385.78 180.568 1376.6 180.568C1359.54 180.568 1313.6 198.896 1274.63 209.71C1268.18 211.503 1261.81 206.607 1261.83 199.9C1261.83 197.497 1261.84 195.058 1261.88 192.566C1261.88 186.217 1258.35 184.101 1254.12 184.101C1246.35 184.101 1237.19 188.333 1221.66 188.333C1199.78 188.333 1183.57 181.286 1154.64 181.286C1101.74 181.286 1058 219.376 1058 277.927C1058 318.133 1077.76 346.36 1138.43 394.331C1203.33 447.234 1231.56 476.16 1231.56 515.666C1231.56 543.176 1215.33 564.337 1180.05 564.337C1095.39 564.337 1074.95 500.836 1052.37 421.84C1050.95 416.191 1049.55 414.075 1046.02 414.075C1042.49 414.075 1040.37 416.891 1041.79 422.54C1043.78 437.855 1057.08 495.276 1058.57 556.249C1058.72 561.952 1054.11 566.632 1048.41 566.632H1046.58C1037.79 566.632 1029.65 562.095 1025 554.653L804.479 200.456C797.055 188.531 783.999 181.268 769.94 181.268H627.228C595.612 181.429 568.91 205.37 547.103 245.468C539.338 261.698 533.707 260.281 535.106 242.653C536.523 221.492 538.639 205.262 538.639 193.982C538.639 188.333 536.523 181.286 527.359 181.286C509.946 181.286 462.441 200.384 422.97 211.091C415.797 213.027 409.072 206.822 410.363 199.488C411.278 194.305 411.995 188.943 412.515 183.402C413.125 176.82 413.43 170.006 413.43 162.94C413.43 85.4333 369.063 44.2948 327.476 22.7392C297.994 7.49604 265.123 0 231.947 0H0V11.7641C0 11.7641 7.72917 11.9972 9.16382 11.9972C55.7181 11.9972 82.5281 23.2772 81.8287 83.9628V487.494C81.8287 548.161 55.7181 559.441 9.16382 559.441C2.8155 559.441 0 560.858 0 565.09C0 565.664 0.0537993 566.184 0.125532 566.686H0V578.45H252.552V566.686H252.426C252.516 566.202 252.552 565.682 252.552 565.09C252.552 560.858 249.736 559.441 241.971 559.441C191.185 559.441 161.541 548.161 161.541 487.494V344.997C161.541 326.651 171.423 316.071 189.051 318.904C206.679 321.72 228.557 325.253 247.602 325.253C314.654 325.253 375.573 295.896 400.93 232.843C402.257 229.544 405.252 227.194 408.767 226.656C418.254 225.204 431.273 223.68 443.378 223.68C455.483 223.68 465.956 227.212 465.956 270.234V487.511C465.256 548.179 443.378 559.459 399.639 559.459C393.291 559.459 390.475 560.876 390.475 565.108C390.475 565.682 390.529 566.202 390.601 566.704H390.475V578.468H646.542V566.704H646.363C646.506 566.22 646.578 565.682 646.578 565.108C646.578 560.876 643.045 559.459 632.465 559.459C573.913 559.459 533.707 548.179 533.707 487.511V313.973C533.707 271.651 558.401 234.26 580.261 234.26C608.488 234.26 600.006 266.719 633.164 266.719C651.51 266.719 669.855 251.906 669.855 220.864C669.855 215.556 669.138 210.75 667.775 206.464C665.677 199.864 670.483 193.104 677.423 193.104H691.608C700.395 193.104 708.537 197.641 713.182 205.083L933.723 559.298C941.147 571.223 954.202 578.468 968.244 578.468C968.244 578.468 1842.03 579.221 1846.8 579.221C1889.84 579.221 1908.17 557.361 1936.4 495.976C1942.05 484.696 1953.33 485.395 1950.51 498.092C1937.82 550.995 1971.67 579.221 2009.06 579.221C2057.03 579.221 2080.31 546.063 2094.42 476.231C2095.84 470.583 2094.42 468.466 2090.89 468.466L2090.87 468.431ZM234.206 315.336C197.515 315.336 161.541 297.707 161.541 258.183V59.251C161.541 21.1611 179.887 14.8127 213.745 14.8127C285.71 14.8127 334.381 75.4804 334.381 162.958C334.381 241.971 296.99 315.336 234.206 315.336ZM1314.51 487.476C1314.51 541.651 1287.18 556.59 1265.47 560.051C1256.36 561.503 1250.31 550.959 1256 543.696C1268.91 527.162 1276.69 504.745 1276.69 476.178C1276.69 422.558 1247.77 391.516 1184.28 340.729C1134.3 302.173 1105.27 278.071 1105.99 245.002C1106.62 215.825 1132.78 193.695 1161.81 196.636C1209.8 201.496 1243.89 240.035 1258.35 320.267C1259.76 326.616 1261.16 328.732 1264 328.732C1266.83 328.732 1268.93 326.616 1268.93 319.568C1268.37 303.141 1264.01 278.196 1262.42 234.87C1262.22 229.562 1266.13 224.989 1271.4 224.361C1278.22 223.554 1285.59 222.926 1292.65 222.926C1304.65 222.926 1315.23 226.459 1315.23 269.481L1314.53 487.476H1314.51ZM1497.23 479.011C1497.23 534.747 1487.35 560.141 1443.61 560.141H1440.8C1393.53 560.141 1382.95 533.33 1382.95 479.011V288.544C1382.95 237.04 1435.85 225.76 1452.08 225.76C1483.82 225.76 1497.23 244.105 1497.23 283.612V479.029V479.011ZM1677.84 479.011C1677.84 534.747 1667.96 560.141 1624.22 560.141H1623.52C1576.25 560.141 1565.67 533.33 1565.67 479.011V280.779C1565.67 238.456 1612.22 225.76 1632.68 225.76C1664.42 225.76 1677.84 244.105 1677.84 283.612V479.029V479.011ZM1951.19 416.927C1951.19 479.011 1915.92 524.866 1878.53 524.866C1849.6 524.866 1836.21 502.288 1836.21 470.547C1836.21 425.391 1866.55 387.301 1922.98 358.375C1939.21 351.327 1951.21 358.375 1951.21 376.721V416.927H1951.19Z" fill="#FCFBFA"/>
<path d="M2355.47 264.37C2355.47 262.415 2354.82 261.769 2352.22 261.769C2338.57 261.769 2325.27 257.555 2312.61 232.538L2289.22 186.432C2285.33 178.972 2285.33 168.571 2289.22 161.111L2307.08 126.374C2320.07 101.698 2333.07 97.4841 2349.62 97.4841C2352.22 97.4841 2353.19 96.8386 2353.19 94.8838C2353.19 94.5611 2353.17 94.2921 2353.12 94.041V90.6875H2181.73V94.9018C2181.73 96.8565 2182.7 97.5021 2184.98 97.5021C2198.95 97.5021 2212.25 101.716 2224.91 126.733L2246.34 168.625C2249.91 176.103 2250.23 186.809 2246.34 194.269L2227.51 232.592C2215.18 257.268 2202.84 261.823 2186.93 261.823C2184.33 261.823 2183.36 262.469 2183.36 264.423C2183.36 264.441 2183.36 264.477 2183.36 264.495V268.709H2355.45V264.495C2355.45 264.495 2355.45 264.441 2355.45 264.423L2355.47 264.37ZM2299.95 129.943L2286.96 154.619C2283.07 162.079 2277.55 162.079 2273.98 154.619L2260.99 129.943C2249.3 106.881 2249.3 97.1434 2279.18 97.1434C2311.98 97.1434 2311.66 107.527 2299.96 129.943H2299.95ZM2234.69 228.97L2248.66 200.725C2252.23 193.265 2257.75 192.924 2261.32 200.402L2276.26 229.31C2288.27 252.372 2288.27 262.11 2258.07 262.11H2256.44C2223.64 262.11 2223.64 251.386 2234.69 228.988V228.97Z" fill="#FCFBFA"/>
</svg>
